<svg height="358pt" viewBox="-12 0 358 358.4" width="358pt" xmlns="http://www.w3.org/2000/svg"><path d="m313.710938 126.292969h-3.855469c-.558594-2.511719-1.355469-4.9375-2.371094-7.246094l-7.511719-29.835937c-10.1875-40.46875-45.632812-68.730469-86.195312-68.730469h-22.230469l-1.152344-14.207031c-.289062-3.542969-3.246093-6.273438-6.804687-6.273438h-32.273438c-3.554687 0-6.515625 2.730469-6.800781 6.273438l-1.15625 14.207031h-22.230469c-40.5625 0-76.007812 28.261719-86.195312 68.730469l-7.511719 29.835937c-1.015625 2.308594-1.8125 4.730469-2.371094 7.246094h-3.855469c-11.574218 0-20.996093 9.421875-20.996093 20.996093v19.449219c0 11.574219 9.421875 20.996094 20.996093 20.996094h2.984376c.660156 15.460937 10.269531 28.644531 23.808593 34.417969v13.367187c0 67.757813 55.121094 122.878907 122.878907 122.878907 67.753906 0 122.878906-55.121094 122.878906-122.878907v-17.132812c9.859375-6.777344 16.4375-17.945313 16.980468-30.652344h2.984376c11.574218 0 20.996093-9.421875 20.996093-21v-19.445313c0-11.574218-9.421875-20.996093-20.996093-20.996093zm-99.933594-92.160157c34.296875 0 64.296875 24.019532 72.957031 58.414063l1.738281 6.902344c-4.066406-1.949219-8.496094-3.246094-13.183594-3.6875-18.316406-29.523438-48.136718-49.953125-82.191406-56.179688l-.445312-5.449219zm-16.136719 61.441407-3.386719-41.71875c25.84375 5.652343 48.714844 20.460937 64.429688 41.71875zm-20.347656-81.921875 6.648437 81.921875h-32.976562l6.648437-81.921875zm-94.234375 81.921875c14.242187-19.214844 34.550781-33.316407 57.453125-39.960938l-3.246094 39.960938zm38.070312-61.441407h21.121094l-.566406 7.011719c-30.96875 7.570313-58.214844 27.222657-75.164063 54.429688h-3.195312c-6.054688 0-11.765625 1.417969-16.890625 3.875l1.738281-6.902344c8.664063-34.394531 38.660156-58.414063 72.957031-58.414063zm-107.277344 132.601563v-19.445313c0-4.050781 3.296876-7.34375 7.34375-7.34375h2.898438v34.132813h-2.898438c-4.046874 0-7.34375-3.292969-7.34375-7.34375zm266.242188 68.785156c0 60.226563-49 109.226563-109.226562 109.226563-60.226563 0-109.226563-49-109.226563-109.226563v-10.324219c.5625.023438 1.113281.085938 1.683594.085938h80.15625c-.054688.324219-.167969.628906-.207031.957031l-.710938 5.902344c-.835938 6.914063 1.335938 13.863281 5.953125 19.070313 4.621094 5.214843 11.261719 8.203124 18.222656 8.203124h1.429688c6.960937 0 13.601562-2.988281 18.222656-8.203124 4.617187-5.207032 6.789063-12.15625 5.953125-19.070313l-.710938-5.90625c-.039062-.324219-.152343-.632813-.203124-.957031h80.152343c2.925781 0 5.769531-.34375 8.511719-.957032zm-102.824219-10.238281c.332031.84375.695313 1.679688.808594 2.59375l.710937 5.902344c.371094 3.085937-.554687 6.058594-2.617187 8.378906-2.058594 2.324219-4.902344 3.605469-8.003906 3.605469h-1.429688c-3.101562 0-5.945312-1.28125-8.003906-3.605469-2.058594-2.320312-2.988281-5.296875-2.617187-8.378906l.710937-5.898438c.109375-.917968.480469-1.753906.8125-2.597656zm119.890625-39.230469c0 14.105469-11.472656 25.574219-25.578125 25.574219h-208.257812c-14.105469 0-25.578125-11.472656-25.578125-25.574219v-51.246093c0-.480469.117187-.925782.140625-1.398438l2.394531-9.507812c4.109375-8.640626 12.855469-14.671876 23.042969-14.671876h208.257812c10.1875 0 18.933594 6.03125 23.042969 14.671876l2.394531 9.507812c.023438.472656.140625.917969.140625 1.398438zm23.894532-19.316406c0 4.050781-3.296876 7.34375-7.34375 7.34375h-2.898438v-34.132813h2.898438c4.046874 0 7.34375 3.296876 7.34375 7.34375zm0 0"/><path d="m135.320312 152.1875-27.308593 27.304688c-2.664063 2.667968-2.664063 6.988281 0 9.652343 1.335937 1.335938 3.082031 2.003907 4.828125 2.003907s3.492187-.667969 4.828125-2.003907l27.304687-27.304687c2.667969-2.664063 2.667969-6.988282 0-9.652344-2.664062-2.667969-6.988281-2.667969-9.652344 0zm0 0"/><path d="m203.585938 124.878906-47.785157 47.789063c-2.667969 2.664062-2.667969 6.984375 0 9.652343 1.332031 1.332032 3.078125 2 4.824219 2s3.496094-.667968 4.828125-2l47.785156-47.789062c2.667969-2.664062 2.667969-6.984375 0-9.652344-2.664062-2.664062-6.984375-2.667968-9.652343 0zm0 0"/><path d="m181.105469 279.894531h-27.304688c-3.769531 0-6.828125 3.054688-6.828125 6.824219s3.058594 6.828125 6.828125 6.828125h27.304688c3.769531 0 6.828125-3.058594 6.828125-6.828125s-3.058594-6.824219-6.828125-6.824219zm0 0"/><path d="m71.878906 133.121094c0 5.65625-4.582031 10.238281-10.238281 10.238281s-10.242187-4.582031-10.242187-10.238281 4.585937-10.242188 10.242187-10.242188 10.238281 4.585938 10.238281 10.242188zm0 0"/><path d="m106.011719 133.121094c0 5.65625-4.582031 10.238281-10.238281 10.238281s-10.238282-4.582031-10.238282-10.238281 4.582032-10.242188 10.238282-10.242188 10.238281 4.585938 10.238281 10.242188zm0 0"/></svg>